<?xml version="1.0" encoding="utf-8"?><!-- Generator: Adobe Illustrator 19.0.1, SVG Export Plug-In . SVG Version: 6.00 Build 0)  --><svg version="1.1" id="Layer_1" xmlns="http://www.w3.org/2000/svg" xmlns:xlink="http://www.w3.org/1999/xlink" x="0px" y="0px" viewBox="0 0 293 45" style="enable-background:new 0 0 293 45;" xml:space="preserve"><path id="XMLID_58_" d="M19.5,3l-19,42h4.8l5-11H33l4.9,11h5.1l-19-42H19.5z M12.1,30l9.5-21.2L31.1,30H12.1z"></path><path id="XMLID_55_" d="M65.7,3H52v42h13.7C78.8,45,88,34.9,88,23.2v-0.1C88,11.3,78.8,3,65.7,3z M83,23.3C83,32.6,76.2,40,65.7,40
	H56V7h9.7C76.2,7,83,13.9,83,23.2V23.3z"></path><path id="XMLID_52_" d="M132,15.8v-0.1c0-4.1-1.5-7-3.9-9.5c-2.8-2.8-7.4-4.2-13.8-4.2H95v42h11V31h5.2l8.4,13h13.3l-9.7-14.9
	C128.4,26.9,132,22.2,132,15.8z M120,16.6c0,3-2.3,5.4-6.2,5.4H106V12h7.7c3.8,0,6.3,1.1,6.3,4.4V16.6z"></path><polygon id="XMLID_51_" points="164,18 150,18 150,2 138,2 138,44 150,44 150,28 164,28 164,44 176,44 176,2 164,2 "></polygon><rect id="XMLID_50_" x="184" y="2" width="11" height="42"></rect><path id="XMLID_47_" d="M270.6,0.6c-12.9,0-22.6,9.7-22.6,21.7v0.1c0,12,9.6,21.6,22.4,21.6c12.9,0,22.6-9.7,22.6-21.7v-0.1
	C293,10.2,283.4,0.6,270.6,0.6z M281,22.5c0,6-4.1,11.2-10.4,11.2c-6.4,0-10.6-5.3-10.6-11.3v-0.1c0-6,4.1-11.2,10.5-11.2
	c6.4,0,10.5,5.2,10.5,11.3V22.5z"></path><path id="XMLID_46_" d="M237.8,4c-0.5,7.5-2.5,14.6-6.1,21.2c-0.1,0.1-0.1,0.3-0.2,0.4l-1.2-1.8L213.1,2H203v42h11V20.3L231.7,44
	h10.1c0.3-3,1-7.1,1.3-10.3c2.3-11.7,0.5-23.1-4.8-33.7C238.1,1.5,237.9,2.6,237.8,4z"></path></svg>