<svg xmlns="http://www.w3.org/2000/svg" width="581.304" height="581.304" viewBox="0 0 581.304 581.304"><path d="M579.122 227.872c-2.75 2.844-5.69 5.406-8.054 8.413-7.825 9.955-17.156 18.384-26.585 26.712-5.402 4.77-8.887 5.336-15.21 1.412-1.88-1.168-3.77-2.34-5.558-3.648-.69-.506-1.525-1.375-1.566-2.118-.192-3.415-.09-6.846-.16-10.273-.077-3.96.032-7.947-.424-11.868-.36-3.097-1.856-5.87-4.342-7.972-.358.27-.583.37-.706.546a4.7 4.7 0 0 0-.542 1.004c-1.33 3.574-4.01 6.04-6.777 8.478-1.935 1.706-3.652 3.656-5.517 5.447-.633.608-1.37 1.453-2.13 1.53-2.815.29-5.766.453-8.173-1.338-3.092-2.3-6.238-4.63-8.898-7.393-3.847-3.994-7.633-8.095-9.645-13.493-2.105-5.642-4.537-11.158-6.688-16.784-.646-1.693-.943-3.55-1.155-5.36-.077-.674.354-1.837.877-2.078 3.194-1.46 4.333-4.54 6.137-7.156 3.585-5.21 7.37-10.286 11.12-15.382 1.13-1.538 2.25-2.954.776-4.904-2.358-3.13-7.57-4.928-11.065-3.223-2.892 1.412-5.552 3.387-8.126 5.357-3.313 2.534-6.39 5.377-9.69 7.927-.686.53-2.44.8-2.786.396-.616-.71-.71-2.032-.702-3.093.012-1.795.693-3.672.35-5.365-1.61-8.042-6.58-13.395-14.087-16.41-2.942-1.18-5.097.184-5.566 3.32-.69 4.6-1.195 9.226-2 13.804-.21 1.215-1.235 2.284-1.888 3.422-1.024-.694-2.293-1.195-3.032-2.122-2.093-2.615-3.762-5.59-5.993-8.066-1.896-2.105-4.14-4.068-6.592-5.463-5.072-2.884-10.775-4.046-16.537-4.377-3.132-.18-6.478.008-9.448.934-6.038 1.885-11.986 4.15-17.78 6.695-5.377 2.362-10.563 1.816-16.055.657-4.41-.932-9.025-1.482-13.513-1.3-6.438.262-12.877 1.14-19.258 2.13-6.695 1.042-13.42 2.176-19.955 3.918-6.54 1.742-12.807 4.496-19.302 6.434-8.103 2.42-16.23 4.623-24.66 5.944-8.866 1.392-17.654 2.42-26.63 2.195-13.538-.338-26.908-1.864-40.233-4.332-12.073-2.236-24.227-4.33-36.438-5.418-10.46-.934-21.065-.188-31.592-.506-7.005-.212-13.986-1.044-20.987-1.505-2.71-.18-5.533-.568-8.136-.034-4.162.853-8.274 2.154-12.244 3.696-10.768 4.187-19.907 11.2-29.47 17.458-1.836 1.204-3.672 2.558-5.108 4.19-5.173 5.896-10.526 11.69-15.13 18.017-3.458 4.757-6.433 10.053-8.628 15.512-3.444 8.563-4.394 17.735-4.55 26.947-.093 5.573.2 11.167-.21 16.716-.478 6.455-1.413 12.88-2.37 19.286-.878 5.865-3.053 11.153-7.753 15.136-2.616 2.215-5.195 4.487-7.64 6.89-.656.646-1.337 2.31-1.02 2.702.833 1.028 2.212 2.256 3.38 2.265 6.066.04 11.53-1.673 15.625-6.54 1.126-1.34 2.37-2.59 3.66-3.77.445-.41 1.293-.784 1.775-.62.424.142.783 1.023.853 1.62.608 5.188-.897 10.015-3.035 14.597-2.477 5.305-5.345 10.425-8 15.647-1.25 2.447-2.698 4.85-3.522 7.44-1.19 3.742-2.53 7.618-2.648 11.474-.16 5.105 1.86 9.875 5.067 13.947 3.043 3.863 5.406 7.8 4.79 13.097-.596 5.133-.445 10.225-4.325 14.528-2.9 3.22-1.79 8.32.902 11.693 2.6 3.256 6.26 4.46 9.666 6.148 2.39 1.184 5.17 2.51 7.68 2.338 6.678-.452 13.324-1.582 19.95-2.643 2.586-.416 3.3-2.117 2-4.395-1.213-2.113-2.734-4.047-4.11-6.066-3.124-4.603-6.8-9.005-7.425-14.774-.502-4.61-.624-9.277-.6-13.92.012-2.563.257-5.28 1.134-7.66 2.525-6.865 6.36-12.985 11.44-18.322 5.153-5.41 10.106-11.016 15.336-16.356 2.783-2.84 5.957-5.3 9.425-8.34.673 2.354 1.155 3.856 1.534 5.382 1.044 4.202 2.53 8.364 2.958 12.632.775 7.735.702 15.553 1.383 23.3.46 5.224 2.82 9.512 8.213 11.372 1.51.522 3.056.946 4.574 1.44 5.202 1.7 10.437 3.305 15.577 5.173 2.742.996 4.154 3.252 3.68 5.41-.534 2.452-1.48 4.818-1.93 7.28-.47 2.585-.833 5.254-.726 7.865.074 1.746 1.266 2.893 3.5 2.65 1.617-.174 3.355.197 4.966.602 4.643 1.166 9.22 2.582 13.88 3.68 1.89.444 3.933.53 5.875.384 2.265-.172 4.485-.873 6.745-1.167 4.007-.522 8.05-.775 12.04-1.4 2.313-.362 4.284-1.754 2.726-3.598-3.08-3.648-5.952-7.618-9.624-10.572-3.692-2.966-8.278-4.807-12.415-7.242-2.998-1.763-6.495-3.007-8.155-6.4-3.994-8.173-6.613-16.827-7.368-25.852-.987-11.78 1.122-23.293 4.37-34.6.416-1.452.97-2.867 1.444-4.242 1.425 0 2.763-.363 3.78.06 5.475 2.282 11.03 4.444 16.25 7.235 7.797 4.166 15.96 7.11 24.586 8.85 6.924 1.396 13.876 2.647 20.808 3.998 7.397 1.444 14.798 1.897 22.29.633 4.516-.763 9.073-1.34 13.63-1.755 8.804-.804 17.625-1.456 26.442-2.125 2.26-.172 4.594.134 6.79-.303 6.205-1.23 12.37-2.672 18.514-4.17 1.497-.362 2.158-.158 2.713 1.343 3.746 10.172 4.74 20.804 5.104 31.485.298 8.69-.057 17.4.1 26.1.063 3.692-1.075 6.843-2.875 9.943a56.203 56.203 0 0 0-3.586 7.36c-.237.587.388 2.08.97 2.338 2.15.942 4.404 1.853 6.706 2.203 5.577.853 11.195 1.497 16.813 2.016 4.85.448 9.727.636 14.594.87.975.044 1.998-.124 2.945-.39 2.603-.722 3.488-2.517 2.117-4.798-1.844-3.067-3.94-5.985-5.985-8.93-2.346-3.383-3.044-7.06-2.32-11.1 1.052-5.862 3.32-11.24 6.286-16.352.29-.498.775-.88 1.485-1.67 1.444 4.134 2.672 7.95 4.108 11.683 2.154 5.613 4.157 11.317 8.327 15.896 1.693 1.86 2.632 3.863 1.09 6.394-.576.942-.764 2.162-.943 3.288-.444 2.807-.51 6.018 1.995 7.54 4.187 2.542 8.988 3.794 14 3.01 4.356-.68 8.67-1.647 13.006-2.438 4.334-.788 8.37-2.313 12.033-4.766 2.468-1.652 2.342-2.763-.188-4.27-3.138-1.874-6.345-3.706-9.185-5.975-2.08-1.66-4.15-3.75-5.275-6.1-1.64-3.432-3.9-7.042-2.815-11.094 1.914-7.118 3.215-14.31 3.272-21.676.05-6.16-.103-12.33-.355-18.49-.31-7.47-.938-14.913 1.46-22.23 1.915-5.833 3.114-6.845 9.197-6.376 1.686.13 2.795-.48 3.554-1.905.86-1.615 1.787-3.202 2.562-4.86 1.004-2.153 2.717-3.267 4.978-3.56 1.587-.21 3.194-.274 4.794-.307 5.06-.11 11.648-4.256 12.832-8.53.673-2.445 1.94-3.813 4.268-4.502 3.517-1.04 6.527-2.998 8.96-5.688 2.668-2.953 7.588-3.198 10.27-.2 3.46 3.868 6.797 7.847 10.272 11.698 2.685 2.97 5.618 5.28 9.902 6.062 5.36.983 10.665 2.493 15.133 6.107 2.402 1.946 5.152 3.636 8.008 4.82 7.23 2.997 14.562 5.77 21.938 8.392 5.765 2.048 11.583 2.945 17.593.306 1.852-.81 4.27-.46 6.43-.415 3.56.073 7.033.596 10.203-2.012 5.06-4.157 7.3-9.592 8.254-15.822.298-1.933.506-4.066 1.474-5.67 2.004-3.32 4.517-6.332 6.777-9.498 4.21-5.9 8.274-11.91 12.623-17.707 4.068-5.43 8.446-10.628 12.645-15.965 1.607-2.048 4.374-3.244 4.61-6.312.146-1.893.343-3.79.583-5.675.74-5.81 1.367-11.636 2.347-17.405.335-2-.607-2.896-2.113-4.316z"/></svg>